P3
# Created by GIMP version 2.10.30 PNM plug-in
5 5
255
255
255
255
0
0
215
92
2
2
0
0
215
255
255
255
0
0
215
255
255
255
0
0
215
255
255
255
0
0
215
92
2
2
0
0
215
255
255
255
0
0
215
92
2
2
0
0
215
255
255
255
0
0
215
255
255
255
0
0
215
255
255
255
0
0
215
92
2
2
0
0
215
255
255
255
